<svg width="317" height="317" viewBox="0 0 317 317" fill="none" xmlns="http://www.w3.org/2000/svg">
<rect x="109" y="70" width="100" height="100" rx="10" fill="url(#paint0_linear)"/>
<path fill-rule="evenodd" clip-rule="evenodd" d="M145 92.1621C145 90.968 145.968 90 147.162 90H170.73C171.924 90 172.892 90.968 172.892 92.1621V115.73C172.892 116.924 171.924 117.892 170.73 117.892H161V113.135C161 112.06 160.129 111.189 159.054 111.189C157.979 111.189 157.108 112.06 157.108 113.135V117.892H147.162C145.968 117.892 145 116.924 145 115.73V92.1621ZM157.108 122H147.162C145.968 122 145 122.968 145 124.162V147.729C145 148.923 145.968 149.891 147.162 149.891H170.73C171.924 149.891 172.892 148.923 172.892 147.729V124.162C172.892 122.968 171.924 122 170.73 122H161V126.756C161 127.831 160.129 128.702 159.054 128.702C157.979 128.702 157.108 127.831 157.108 126.756V122Z" fill="white"/>
<path d="M88.8223 190.344H94.4766V220.549C94.4766 224.631 93.2461 227.824 90.7852 230.129C88.3438 232.434 85.082 233.586 81 233.586C76.7617 233.586 73.4609 232.502 71.0977 230.334C68.7344 228.166 67.5527 225.129 67.5527 221.223H73.1777C73.1777 223.664 73.8418 225.568 75.1699 226.936C76.5176 228.303 78.4609 228.986 81 228.986C83.3242 228.986 85.1992 228.254 86.625 226.789C88.0703 225.324 88.8027 223.273 88.8223 220.637V190.344ZM122.777 233C122.465 232.375 122.211 231.262 122.016 229.66C119.496 232.277 116.488 233.586 112.992 233.586C109.867 233.586 107.299 232.707 105.287 230.949C103.295 229.172 102.299 226.926 102.299 224.211C102.299 220.91 103.549 218.352 106.049 216.535C108.568 214.699 112.104 213.781 116.654 213.781H121.928V211.291C121.928 209.396 121.361 207.893 120.229 206.779C119.096 205.646 117.426 205.08 115.219 205.08C113.285 205.08 111.664 205.568 110.355 206.545C109.047 207.521 108.393 208.703 108.393 210.09H102.943C102.943 208.508 103.5 206.984 104.613 205.52C105.746 204.035 107.27 202.863 109.184 202.004C111.117 201.145 113.236 200.715 115.541 200.715C119.193 200.715 122.055 201.633 124.125 203.469C126.195 205.285 127.27 207.795 127.348 210.998V225.588C127.348 228.498 127.719 230.812 128.461 232.531V233H122.777ZM113.783 228.869C115.482 228.869 117.094 228.43 118.617 227.551C120.141 226.672 121.244 225.529 121.928 224.123V217.619H117.68C111.039 217.619 107.719 219.562 107.719 223.449C107.719 225.148 108.285 226.477 109.418 227.434C110.551 228.391 112.006 228.869 113.783 228.869ZM140.941 201.301L141.088 204.816C143.412 202.082 146.547 200.715 150.492 200.715C154.926 200.715 157.943 202.414 159.545 205.812C160.6 204.289 161.967 203.059 163.646 202.121C165.346 201.184 167.348 200.715 169.652 200.715C176.605 200.715 180.141 204.396 180.258 211.76V233H174.838V212.082C174.838 209.816 174.32 208.127 173.285 207.014C172.25 205.881 170.512 205.314 168.07 205.314C166.059 205.314 164.389 205.92 163.061 207.131C161.732 208.322 160.961 209.934 160.746 211.965V233H155.297V212.229C155.297 207.619 153.041 205.314 148.529 205.314C144.975 205.314 142.543 206.828 141.234 209.855V233H135.814V201.301H140.941ZM187.025 216.857C187.025 213.752 187.631 210.959 188.842 208.479C190.072 205.998 191.771 204.084 193.939 202.736C196.127 201.389 198.617 200.715 201.41 200.715C205.727 200.715 209.213 202.209 211.869 205.197C214.545 208.186 215.883 212.16 215.883 217.121V217.502C215.883 220.588 215.287 223.361 214.096 225.822C212.924 228.264 211.234 230.168 209.027 231.535C206.84 232.902 204.32 233.586 201.469 233.586C197.172 233.586 193.686 232.092 191.01 229.104C188.354 226.115 187.025 222.16 187.025 217.238V216.857ZM192.475 217.502C192.475 221.018 193.285 223.84 194.906 225.969C196.547 228.098 198.734 229.162 201.469 229.162C204.223 229.162 206.41 228.088 208.031 225.939C209.652 223.771 210.463 220.744 210.463 216.857C210.463 213.381 209.633 210.568 207.973 208.42C206.332 206.252 204.145 205.168 201.41 205.168C198.734 205.168 196.576 206.232 194.936 208.361C193.295 210.49 192.475 213.537 192.475 217.502ZM227.807 201.301L227.982 205.285C230.404 202.238 233.568 200.715 237.475 200.715C244.174 200.715 247.553 204.494 247.611 212.053V233H242.191V212.023C242.172 209.738 241.645 208.049 240.609 206.955C239.594 205.861 238.002 205.314 235.834 205.314C234.076 205.314 232.533 205.783 231.205 206.721C229.877 207.658 228.842 208.889 228.1 210.412V233H222.68V201.301H227.807Z" fill="#82899F"/>
<defs>
<linearGradient id="paint0_linear" x1="159" y1="70" x2="159" y2="170" gradientUnits="userSpaceOnUse">
<stop stop-color="#94C34C"/>
<stop offset="1" stop-color="#11942E"/>
</linearGradient>
</defs>
</svg>
