<svg width="435" height="179" viewBox="0 0 435 179" fill="none" xmlns="http://www.w3.org/2000/svg">
<rect x="60" y="39" width="100" height="100" rx="10" fill="url(#paint0_linear)"/>
<path fill-rule="evenodd" clip-rule="evenodd" d="M96 61.1621C96 59.968 96.968 59 98.1621 59H121.73C122.924 59 123.892 59.968 123.892 61.1621V84.7295C123.892 85.9237 122.924 86.8917 121.73 86.8917H112V82.135C112 81.0602 111.129 80.189 110.054 80.189C108.979 80.189 108.108 81.0602 108.108 82.135V86.8917H98.1621C96.968 86.8917 96 85.9237 96 84.7295V61.1621ZM108.108 90.9998H98.1621C96.968 90.9998 96 91.9678 96 93.1619V116.729C96 117.923 96.968 118.891 98.1621 118.891H121.73C122.924 118.891 123.892 117.923 123.892 116.729V93.1619C123.892 91.9678 122.924 90.9998 121.73 90.9998H112V95.7565C112 96.8312 111.129 97.7024 110.054 97.7024C108.979 97.7024 108.108 96.8312 108.108 95.7565V90.9998Z" fill="white"/>
<path d="M212.822 67.3438H218.477V97.5488C218.477 101.631 217.246 104.824 214.785 107.129C212.344 109.434 209.082 110.586 205 110.586C200.762 110.586 197.461 109.502 195.098 107.334C192.734 105.166 191.553 102.129 191.553 98.2227H197.178C197.178 100.664 197.842 102.568 199.17 103.936C200.518 105.303 202.461 105.986 205 105.986C207.324 105.986 209.199 105.254 210.625 103.789C212.07 102.324 212.803 100.273 212.822 97.6367V67.3438ZM246.777 110C246.465 109.375 246.211 108.262 246.016 106.66C243.496 109.277 240.488 110.586 236.992 110.586C233.867 110.586 231.299 109.707 229.287 107.949C227.295 106.172 226.299 103.926 226.299 101.211C226.299 97.9102 227.549 95.3516 230.049 93.5352C232.568 91.6992 236.104 90.7812 240.654 90.7812H245.928V88.291C245.928 86.3965 245.361 84.8926 244.229 83.7793C243.096 82.6465 241.426 82.0801 239.219 82.0801C237.285 82.0801 235.664 82.5684 234.355 83.5449C233.047 84.5215 232.393 85.7031 232.393 87.0898H226.943C226.943 85.5078 227.5 83.9844 228.613 82.5195C229.746 81.0352 231.27 79.8633 233.184 79.0039C235.117 78.1445 237.236 77.7148 239.541 77.7148C243.193 77.7148 246.055 78.6328 248.125 80.4688C250.195 82.2852 251.27 84.7949 251.348 87.998V102.588C251.348 105.498 251.719 107.812 252.461 109.531V110H246.777ZM237.783 105.869C239.482 105.869 241.094 105.43 242.617 104.551C244.141 103.672 245.244 102.529 245.928 101.123V94.6191H241.68C235.039 94.6191 231.719 96.5625 231.719 100.449C231.719 102.148 232.285 103.477 233.418 104.434C234.551 105.391 236.006 105.869 237.783 105.869ZM264.941 78.3008L265.088 81.8164C267.412 79.082 270.547 77.7148 274.492 77.7148C278.926 77.7148 281.943 79.4141 283.545 82.8125C284.6 81.2891 285.967 80.0586 287.646 79.1211C289.346 78.1836 291.348 77.7148 293.652 77.7148C300.605 77.7148 304.141 81.3965 304.258 88.7598V110H298.838V89.082C298.838 86.8164 298.32 85.127 297.285 84.0137C296.25 82.8809 294.512 82.3145 292.07 82.3145C290.059 82.3145 288.389 82.9199 287.061 84.1309C285.732 85.3223 284.961 86.9336 284.746 88.9648V110H279.297V89.2285C279.297 84.6191 277.041 82.3145 272.529 82.3145C268.975 82.3145 266.543 83.8281 265.234 86.8555V110H259.814V78.3008H264.941ZM311.025 93.8574C311.025 90.752 311.631 87.959 312.842 85.4785C314.072 82.998 315.771 81.084 317.939 79.7363C320.127 78.3887 322.617 77.7148 325.41 77.7148C329.727 77.7148 333.213 79.209 335.869 82.1973C338.545 85.1855 339.883 89.1602 339.883 94.1211V94.502C339.883 97.5879 339.287 100.361 338.096 102.822C336.924 105.264 335.234 107.168 333.027 108.535C330.84 109.902 328.32 110.586 325.469 110.586C321.172 110.586 317.686 109.092 315.01 106.104C312.354 103.115 311.025 99.1602 311.025 94.2383V93.8574ZM316.475 94.502C316.475 98.0176 317.285 100.84 318.906 102.969C320.547 105.098 322.734 106.162 325.469 106.162C328.223 106.162 330.41 105.088 332.031 102.939C333.652 100.771 334.463 97.7441 334.463 93.8574C334.463 90.3809 333.633 87.5684 331.973 85.4199C330.332 83.252 328.145 82.168 325.41 82.168C322.734 82.168 320.576 83.2324 318.936 85.3613C317.295 87.4902 316.475 90.5371 316.475 94.502ZM351.807 78.3008L351.982 82.2852C354.404 79.2383 357.568 77.7148 361.475 77.7148C368.174 77.7148 371.553 81.4941 371.611 89.0527V110H366.191V89.0234C366.172 86.7383 365.645 85.0488 364.609 83.9551C363.594 82.8613 362.002 82.3145 359.834 82.3145C358.076 82.3145 356.533 82.7832 355.205 83.7207C353.877 84.6582 352.842 85.8887 352.1 87.4121V110H346.68V78.3008H351.807Z" fill="#82899F"/>
<defs>
<linearGradient id="paint0_linear" x1="110" y1="39" x2="110" y2="139" gradientUnits="userSpaceOnUse">
<stop stop-color="#94C34C"/>
<stop offset="1" stop-color="#11942E"/>
</linearGradient>
</defs>
</svg>
