<svg width="100" height="100" viewBox="0 0 100 100" fill="none" xmlns="http://www.w3.org/2000/svg">
<rect width="100" height="100" rx="10" fill="url(#paint0_linear)"/>
<path fill-rule="evenodd" clip-rule="evenodd" d="M36 22.1621C36 20.968 36.968 20 38.1621 20H61.7295C62.9237 20 63.8917 20.968 63.8917 22.1621V45.7295C63.8917 46.9237 62.9237 47.8917 61.7295 47.8917H51.9998V43.135C51.9998 42.0602 51.1286 41.189 50.0539 41.189C48.9792 41.189 48.108 42.0602 48.108 43.135V47.8917H38.1621C36.968 47.8917 36 46.9237 36 45.7295V22.1621ZM48.108 51.9998H38.1621C36.968 51.9998 36 52.9678 36 54.1619V77.7293C36 78.9235 36.968 79.8915 38.1621 79.8915H61.7295C62.9237 79.8915 63.8917 78.9235 63.8917 77.7293V54.1619C63.8917 52.9678 62.9237 51.9998 61.7295 51.9998H51.9998V56.7565C51.9998 57.8312 51.1286 58.7024 50.0539 58.7024C48.9792 58.7024 48.108 57.8312 48.108 56.7565V51.9998Z" fill="white"/>
<defs>
<linearGradient id="paint0_linear" x1="50" y1="0" x2="50" y2="100" gradientUnits="userSpaceOnUse">
<stop stop-color="#94C34C"/>
<stop offset="1" stop-color="#11942E"/>
</linearGradient>
</defs>
</svg>
